PathFileType	4	(X/Y/Z)	Patient4_TMGait_0pt2_01_left_02.trc.trc
DataRate	CameraRate	NumFrames	NumMarkers	Units	OrigDataRate	OrigDataStartFrame	OrigNumFrames
42.424242424242	42.424242424242	5	33	mm	42.424242424242	18	       141
Frame#	Time	Sacral			L.Shoulder			Chest			R.Shoulder			Neck			R.ASIS			L.ASIS			R.Thigh.Superior			R.Thigh.Lateral			R.Thigh.Inferior			R.Patella			L.Thigh.Superior			L.Thigh.Lateral			L.Thigh.Inferior			L.Patella			L.Shank.Superior			L.Shank.Lateral			L.Shank.Inferior			R.Shank.Superior			R.Shank.Lateral			R.Shank.Inferior			R.Heel			R.Midfoot.Superior			R.Midfoot.Lateral			R.Toe			L.Heel			L.Midfoot.Lateral			L.Midfoot.Superior			L.Toe			L.Elbow			L.Wrist			R.Elbow			R.Wrist			
		X1	Y1	Z1	X2	Y2	Z2	X3	Y3	Z3	X4	Y4	Z4	X5	Y5	Z5	X6	Y6	Z6	X7	Y7	Z7	X8	Y8	Z8	X9	Y9	Z9	X10	Y10	Z10	X11	Y11	Z11	X12	Y12	Z12	X13	Y13	Z13	X14	Y14	Z14	X15	Y15	Z15	X16	Y16	Z16	X17	Y17	Z17	X18	Y18	Z18	X19	Y19	Z19	X20	Y20	Z20	X21	Y21	Z21	X22	Y22	Z22	X23	Y23	Z23	X24	Y24	Z24	X25	Y25	Z25	X26	Y26	Z26	X27	Y27	Z27	X28	Y28	Z28	X29	Y29	Z29	X30	Y30	Z30	X31	Y31	Z31	X32	Y32	Z32	X33	Y33	Z33	

18	3.730714285714	900.861434373615	1003.369491523916	611.325323056373	1018.450397185452	1430.418954245252	390.732418310637	1161.966886950904	1365.460591883514	519.051520602846	1127.903037914561	1441.079840050395	707.686061231052	1046.954654131399	1494.169939555921	543.819384143256	1149.708180241189	937.368766323377	671.929165686372	1076.198053315398	965.355892836663	407.256380591007	1167.342302989540	732.075641880152	629.088445332649	1090.531906545828	622.358796727864	697.859429895157	1146.361471235565	571.026944996077	603.250442758428	1139.392348102477	481.585013976902	606.481418482442	1160.486443169157	779.242632168413	432.688967328609	1108.878886826818	652.540397249188	355.856324827581	1210.597114734367	589.874940721985	413.517996068596	1232.638594462419	516.695206283276	403.072060085924	1198.997528681778	444.012775725470	389.066217286644	1102.359449710323	337.208176713016	335.483921818087	1165.811859136969	217.428064353295	379.119669601197	1102.301194668511	394.280874141450	614.258037096906	1027.659002279937	294.050456363121	677.548588002144	1051.274664445621	200.177585874735	606.888077661787	900.468602096875	43.356479322250	580.318026024590	1073.628600264284	96.792177306421	610.475655160243	985.956347220957	37.133610656401	652.568709953159	1193.812009165241	43.980409384197	634.934135334402	1044.745986888590	57.147049683854	413.360717834698	1114.188870099135	54.881688312045	329.460949189778	1199.619138252468	116.256738780511	349.663474037473	1323.377241332875	65.678448242241	312.424918743792	878.530698270456	1099.894112280027	325.004128115460	845.099090042726	844.514393308849	371.765451002343	1296.657733529349	1146.933525798016	825.315698610420	1539.817270788891	1184.406458145315	754.307743271421	
19	3.754285714286	900.044227803197	1004.685163226316	610.926263714502	1017.565237706011	1431.043485978347	389.246150456280	1162.170586521393	1365.247000313907	516.066990053707	1130.485568418496	1441.311653139765	704.900587664686	1047.765584341360	1494.559494438199	542.046286314238	1148.868962181735	937.218539141430	669.496381346966	1073.506028123768	965.758628857846	405.252109709427	1164.112875325593	731.585043107836	627.355598495335	1086.621319136412	622.730226586118	697.000830808283	1141.573813661394	570.629004711476	602.421737134584	1133.787880572266	481.597037723980	606.078146268415	1155.263119173379	777.570790169215	429.112739560554	1100.063793473401	651.457685536645	353.530245860792	1201.729538993147	588.224458090168	409.804159435457	1223.663340288861	517.505931934816	400.828453828952	1194.621582836945	444.764805248975	386.926374724389	1105.412835873582	331.547146801140	331.667517429781	1175.766536506194	215.509855112321	376.700830149938	1097.102497864997	394.488673579752	614.005350576953	1022.560010035522	294.250815061441	677.465333893416	1046.260945273368	200.280086676581	606.848168765836	895.675060620568	43.371599007878	580.364579778887	1068.745352425206	96.680741414558	610.416971351065	981.177653511895	37.122421457825	652.606143426776	1189.019380293516	43.915585131648	634.918832210246	1063.141206966749	48.994808481695	408.922261902902	1134.852094754542	48.672738705763	326.732120452784	1217.053841701165	114.609406547657	348.359984148493	1344.516106813942	69.222207847940	314.961939370543	876.158384117188	1101.259257288229	325.345027657279	841.759010051124	846.160972330323	373.358520375954	1304.550931524804	1150.161125708367	818.789687794615	1544.304528687976	1197.576710698362	743.479072452629	
20	3.777857142857	899.366172362422	1005.512296445747	609.917298315743	1017.124913597171	1431.226137825634	387.210304619722	1162.455344673676	1364.724661180396	512.963408694336	1132.564952651450	1441.229454344752	701.861430103217	1048.563689328047	1494.611779924899	539.798556297964	1148.120086443229	936.895575352152	667.065882312751	1071.366458616249	965.691073218050	403.124921456933	1161.447101730993	731.021765888398	625.559418359091	1083.372414824506	622.870248586181	695.903879752413	1137.652894919749	570.102390591371	601.426649849324	1129.147788454316	481.345513708251	605.458718694154	1150.634488333105	775.352319184678	425.229364783200	1091.504038574857	649.813197259753	351.253331615316	1193.271209330180	586.058564435288	406.006335856521	1214.597786034702	517.486423355342	398.585585814180	1189.693857716129	444.895183562840	384.767780083491	1106.994594537541	326.578752030069	328.380252630094	1183.079398639675	214.097988986164	374.586506748732	1092.635123302028	394.442858038817	613.524176420771	1017.977695399565	294.375113140005	677.198681857257	1041.564435774326	200.246257351273	606.692913231447	890.896179552868	43.391441016237	580.402050049983	1063.877589420537	96.558481178702	610.315250256387	976.404948429975	37.117750750598	652.630653487514	1184.242980957979	43.835036982717	634.916730971769	1077.830833108219	43.187489528593	405.425767265106	1151.184399104541	44.299806902236	324.577927901762	1230.690174573808	113.541657356865	347.278388900817	1360.703564169801	72.135086542517	316.975237692540	875.218862064841	1101.690300725331	324.800919604276	839.911717680615	846.772718928657	373.638056359480	1311.403701454264	1152.785361896050	812.076254470658	1547.713379839740	1208.950277645641	732.980669615743	
21	3.801428571429	898.869495666735	1005.878126841047	608.295815497563	1017.068270338977	1431.000273804738	384.604036123354	1162.797966500849	1363.959826565955	509.709041156849	1134.119497588416	1440.888648382503	698.556159835246	1049.296695163483	1494.367410883634	537.046106429367	1147.526667832366	936.441302667606	664.605665510704	1069.826601900257	965.198613084214	400.847436437420	1159.378033554505	730.389488275387	623.657850697861	1080.800299529399	622.795235446006	694.543983415295	1134.574211872657	569.453429243928	600.220558118756	1125.428281257583	480.845821415189	604.577282835131	1146.754456337058	772.748983197759	421.171945128059	1083.576356099284	647.749997058777	349.081349803687	1185.541912649351	583.553765738733	402.297714066632	1205.811952728455	516.737808156813	396.417931793476	1184.499658029139	444.433824273424	382.645876120075	1107.150206720298	322.289317684567	325.707248350078	1187.773966278820	212.987502895021	372.823658907885	1088.854687545335	394.156311511007	612.788533519877	1013.892177988230	294.432866057515	676.738660360273	1037.170495987361	200.087443295839	606.413419498236	886.131656262789	43.413420135881	580.432133379722	1059.037405064002	96.440083404139	610.182559966200	971.638775644196	37.117709809729	652.643059378406	1179.482379257775	43.747042190898	634.927459759173	1088.578096064246	39.363544804066	402.956650706555	1162.956595498143	41.428471684523	323.013099657145	1240.445496525407	112.773894680021	346.424111604746	1371.986742656217	74.082485787635	318.310688760807	875.487619295404	1101.301839750821	323.302470966185	839.340889988345	846.484111328601	372.571839830770	1317.195658942033	1154.849818898887	805.272217946200	1550.164137978461	1218.605151340231	722.891515949838	
22	3.825000000000	898.589885997646	1005.856136093269	606.073643654081	1017.326732775028	1430.437033564182	381.428657122408	1163.184180226997	1363.045404176262	506.268280415073	1135.170154605723	1440.376507675286	694.970329396625	1049.928429174077	1493.895857332851	533.776952793337	1147.140894987400	935.911610250551	662.074756480230	1068.910145854066	964.370574372918	398.389486136408	1157.878767544965	729.697477299471	621.619056589369	1078.836694040671	622.546714976556	692.914257608114	1132.221071860012	568.700965883209	598.782636734538	1122.482305553352	480.141509443675	603.416765504867	1143.733539997678	769.951167522018	417.081378373866	1076.622983373843	645.449148868941	347.024976032720	1178.804553378169	580.895481076047	398.814790427664	1197.654007659287	515.411483870809	394.372442257883	1179.338467485190	443.457948943330	380.603525255577	1106.065704721283	318.639798532601	323.633469940167	1190.061040566593	211.994543837980	371.420503962273	1085.642105924382	393.671285589693	611.798648599584	1010.223762345596	294.446168290913	676.094858477322	1033.030193508723	199.831570430869	606.014754959622	881.379252305154	43.435861379713	580.456528187750	1054.234200248681	96.340371343386	610.034993196159	966.878670134008	37.119921405144	652.644492856191	1174.734185608809	43.660170028465	634.948492108529	1095.428124561339	37.119798078602	401.469650972925	1170.287109820888	39.679773166222	321.993060073272	1246.508453208245	112.043976136223	345.794578610349	1378.728993300157	74.819729968277	318.961918054798	876.729454158138	1100.264270971579	320.811141205795	839.863957973505	845.475371688887	370.146233634799	1321.945691458544	1156.443722757817	798.478541773246	1551.782730681533	1226.679547386290	713.272653068486	
